<svg xmlns="http://www.w3.org/2000/svg" version="1.1" xmlns:xlink="http://www.w3.org/1999/xlink" xmlns:svgjs="http://svgjs.dev/svgjs" width="100" height="125"><svg xmlns="http://www.w3.org/2000/svg" xmlns:xlink="http://www.w3.org/1999/xlink" xml:space="preserve" style="shape-rendering:geometricPrecision;text-rendering:geometricPrecision;image-rendering:optimizeQuality;" viewBox="0 0 100 125" x="0px" y="0px" fill-rule="evenodd" clip-rule="evenodd"><defs><style type="text/css">
   
    .fil0 {fill:black}
   
  </style></defs><g><path class="fil0" d="M49.9988 4.99846l-10.9099 26.4959 -12.1466 -4.03822 4.30988 11.5832 -26.2538 10.9595 26.301 10.8308 -4.35712 11.7084 12.0119 -3.99334 11.0446 26.4557 10.8958 -26.4616 12.0296 3.99924 -4.29098 -11.5312 26.3671 -11.008 -26.4179 -10.8769 4.34177 -11.6658 -11.8985 3.95554 -11.0269 -26.4132zm0 9.08747l10.6087 25.6006 -10.6087 10.3123 -10.3135 -10.6076 -25.5994 10.6076 35.9129 0 0 35.9141 -10.6076 -25.6006 10.6076 -10.3135 0 -35.9129zm0 35.9129l10.3135 10.6087 25.6006 -10.6087 -35.9141 0z"></path></g><text x="0" y="115" fill="#000000" font-size="5px" font-weight="bold" font-family="'Helvetica Neue', Helvetica, Arial-Unicode, Arial, Sans-serif" svgjs:data="{&quot;leading&quot;:&quot;1.3&quot;}">Created by Richard</text><text x="0" y="120" fill="#000000" font-size="5px" font-weight="bold" font-family="'Helvetica Neue', Helvetica, Arial-Unicode, Arial, Sans-serif" svgjs:data="{&quot;leading&quot;:&quot;1.3&quot;}">from the Noun Project</text></svg><style>@media (prefers-color-scheme: light) { :root { filter: none; } }
@media (prefers-color-scheme: dark) { :root { filter: none; } }
</style></svg>